<?xml version="1.0" encoding="UTF-8"?>
<svg version="1.1" xmlns="http://www.w3.org/2000/svg" width="656" height="430">
<path d="M0 0 C216.48 0 432.96 0 656 0 C656 141.9 656 283.8 656 430 C439.52 430 223.04 430 0 430 C0 288.1 0 146.2 0 0 Z " fill="#494949" transform="translate(0,0)"/>
<path d="M0 0 C14.42552208 12.63504825 25.2970704 30.6706094 27.31958008 50.06445312 C27.47253816 53.27882601 27.51911163 56.46957847 27.5 59.6875 C27.49033203 61.40042236 27.49033203 61.40042236 27.48046875 63.14794922 C27.27570337 72.66549816 25.81608426 80.26685851 22 89 C21.58983643 89.98419922 21.58983643 89.98419922 21.17138672 90.98828125 C12.80258063 110.80440161 -1.4021696 124.42420784 -20.87109375 133.39453125 C-31.20802047 137.57054322 -40.5728896 139.70537817 -51.75 139.5625 C-52.97283691 139.55154297 -54.19567383 139.54058594 -55.45556641 139.52929688 C-76.93713749 139.01803378 -94.88695938 130.18983452 -110 115 C-125.97789961 97.27143546 -132.35536396 76.04056922 -131.18457031 52.52783203 C-129.67653305 31.87410482 -119.05275399 12.89304869 -103.62988281 -0.64794922 C-73.20929223 -25.88300474 -30.27519738 -25.07086593 0 0 Z " fill="#4E4E4E" transform="translate(379,109)"/>
<path d="M0 0 C14.42552208 12.63504825 25.2970704 30.6706094 27.31958008 50.06445312 C27.47253816 53.27882601 27.51911163 56.46957847 27.5 59.6875 C27.49033203 61.40042236 27.49033203 61.40042236 27.48046875 63.14794922 C27.27570337 72.66549816 25.81608426 80.26685851 22 89 C21.58983643 89.98419922 21.58983643 89.98419922 21.17138672 90.98828125 C12.80258063 110.80440161 -1.4021696 124.42420784 -20.87109375 133.39453125 C-31.20802047 137.57054322 -40.5728896 139.70537817 -51.75 139.5625 C-52.97283691 139.55154297 -54.19567383 139.54058594 -55.45556641 139.52929688 C-76.93713749 139.01803378 -94.88695938 130.18983452 -110 115 C-125.97789961 97.27143546 -132.35536396 76.04056922 -131.18457031 52.52783203 C-129.67653305 31.87410482 -119.05275399 12.89304869 -103.62988281 -0.64794922 C-73.20929223 -25.88300474 -30.27519738 -25.07086593 0 0 Z M-74 -11 C-74.96808594 -10.68417969 -75.93617188 -10.36835937 -76.93359375 -10.04296875 C-88.14712293 -6.2118254 -96.57916125 -0.28233811 -105 8 C-105.70125 8.68835938 -106.4025 9.37671875 -107.125 10.0859375 C-120.08479107 23.70384296 -126.17570829 40.68984708 -126.1875 59.25 C-126.19974609 60.24902344 -126.21199219 61.24804688 -126.22460938 62.27734375 C-126.26239153 81.54624407 -117.98429194 99.00932677 -105 113 C-89.38635988 128.14921173 -71.74267176 134.33904936 -50.43383789 134.38061523 C-32.3656195 134.0944139 -17.77333837 128.52790329 -4 117 C-3.00226563 116.22140625 -2.00453125 115.4428125 -0.9765625 114.640625 C2.25531515 111.77349995 4.61496857 108.84297562 7.0625 105.3125 C7.71037476 104.38884644 7.71037476 104.38884644 8.37133789 103.4465332 C19.92345448 86.6801468 24.21981318 67.47517598 21.5 47.2890625 C17.62209537 27.32666707 6.88737743 10.11826816 -9.87988281 -1.59082031 C-23.40137308 -10.57235862 -37.20829963 -14.16645116 -53.375 -14.25 C-54.365 -14.270625 -55.355 -14.29125 -56.375 -14.3125 C-62.85829104 -14.34671262 -67.995118 -13.39316221 -74 -11 Z " fill="#F3F3F3" transform="translate(379,109)"/>
<path d="M0 0 C3.96 0 7.92 0 12 0 C15.56424457 8.21756387 18.51579939 16.39550627 21 25 C21.81832722 23.10667466 22.62942268 21.21022267 23.4375 19.3125 C23.88996094 18.25675781 24.34242188 17.20101563 24.80859375 16.11328125 C26.53598029 11.59942201 27.41558779 8.38351058 26.0625 3.6875 C25.711875 2.470625 25.36125 1.25375 25 0 C28.63 0 32.26 0 36 0 C39.33333333 8 42.66666667 16 46 24 C48.64 16.08 51.28 8.16 54 0 C57.63 0 61.26 0 65 0 C63.75185508 5.99758908 62.22598719 11.71760169 60.21484375 17.5 C59.95369278 18.26175537 59.69254181 19.02351074 59.42347717 19.80834961 C58.87701205 21.3989135 58.32819777 22.98867214 57.77709961 24.57763672 C56.93064648 27.01977336 56.09273742 29.46472387 55.25585938 31.91015625 C54.72184985 33.46110826 54.18736226 35.01189577 53.65234375 36.5625 C53.40129379 37.2946875 53.15024384 38.026875 52.8915863 38.78125 C51.11572928 43.88427072 51.11572928 43.88427072 50 45 C48.48071962 45.07179964 46.95832518 45.08392007 45.4375 45.0625 C44.61121094 45.05347656 43.78492188 45.04445313 42.93359375 45.03515625 C42.29550781 45.02355469 41.65742188 45.01195312 41 45 C39.82807565 41.87694627 38.66336124 38.75125261 37.5 35.625 C37.16613281 34.73554688 36.83226562 33.84609375 36.48828125 32.9296875 C36.17246094 32.07890625 35.85664063 31.228125 35.53125 30.3515625 C35.23798828 29.56604004 34.94472656 28.78051758 34.64257812 27.97119141 C34 26 34 26 34 24 C33.34 24 32.68 24 32 24 C31.7525 25.2375 31.505 26.475 31.25 27.75 C29.95181648 33.64826858 27.98560032 39.30344763 26 45 C22.7 45 19.4 45 16 45 C13.71932093 38.75277421 11.44071484 32.50479788 9.1640625 26.25610352 C8.38859686 24.12861482 7.61255599 22.00133571 6.8359375 19.87426758 C5.72245926 16.82427457 4.61102346 13.77354418 3.5 10.72265625 C3.15001953 9.76537125 2.80003906 8.80808624 2.43945312 7.8217926 C2.11912109 6.94095505 1.79878906 6.06011749 1.46875 5.15258789 C1.18451172 4.37315323 0.90027344 3.59371857 0.60742188 2.79066467 C0 1 0 1 0 0 Z " fill="#FBFBFB" transform="translate(129,275)"/>
<path d="M0 0 C4.29131003 2.06312982 7.10235301 4.59175438 9.30859375 8.875 C11.09081535 14.35256242 10.67360643 19.97918072 8.875 25.375 C6.2157355 29.0979703 3.13912885 31.93043557 -1 34 C-2.875 34.1328125 -2.875 34.1328125 -5 34.125 C-6.051875 34.12886719 -6.051875 34.12886719 -7.125 34.1328125 C-9 34 -9 34 -11 33 C-11.33 38.28 -11.66 43.56 -12 49 C-15.63 49 -19.26 49 -23 49 C-23 33.16 -23 17.32 -23 1 C-19.7 1 -16.4 1 -13 1 C-12.67 1.66 -12.34 2.32 -12 3 C-11.505 2.505 -11.01 2.01 -10.5 1.5 C-7.02521614 -0.58487031 -3.9000467 -0.6625562 0 0 Z " fill="#F7F7F7" transform="translate(477,287)"/>
<path d="M0 0 C4.37702955 2.35686207 8.07760967 4.93611604 9.55859375 9.85546875 C10.90512623 16.3974717 10.37418879 22.1514061 7 28 C4.25744976 30.82299838 1.19740806 33.84435026 -2.875 34.1328125 C-3.57625 34.13023437 -4.2775 34.12765625 -5 34.125 C-6.051875 34.12886719 -6.051875 34.12886719 -7.125 34.1328125 C-9 34 -9 34 -11 33 C-11.33 38.28 -11.66 43.56 -12 49 C-15.63 49 -19.26 49 -23 49 C-23 33.16 -23 17.32 -23 1 C-19.7 1 -16.4 1 -13 1 C-12.67 1.66 -12.34 2.32 -12 3 C-11.319375 2.505 -10.63875 2.01 -9.9375 1.5 C-6.25859625 -0.37858915 -4.0908775 -0.50238846 0 0 Z " fill="#F7F7F7" transform="translate(515,287)"/>
<path d="M0 0 C3.46679688 0.04882812 3.46679688 0.04882812 6.93359375 0.09765625 C11.28925476 8.27135219 14.7970999 16.75899894 18.29223633 25.32348633 C19.25752906 27.68816939 20.22891308 30.05028301 21.20117188 32.41210938 C21.81675756 33.91261634 22.43200484 35.41326219 23.046875 36.9140625 C23.33742264 37.62123917 23.62797028 38.32841583 23.92732239 39.05702209 C25.93359375 43.98135337 25.93359375 43.98135337 25.93359375 45.09765625 C21.97359375 45.09765625 18.01359375 45.09765625 13.93359375 45.09765625 C12.94359375 42.78765625 11.95359375 40.47765625 10.93359375 38.09765625 C5.65359375 38.09765625 0.37359375 38.09765625 -5.06640625 38.09765625 C-6.05640625 40.40765625 -7.04640625 42.71765625 -8.06640625 45.09765625 C-11.69640625 45.09765625 -15.32640625 45.09765625 -19.06640625 45.09765625 C-15.06978263 33.41603563 -11.01544252 21.76452821 -6.62890625 10.22265625 C-6.28730469 9.3200708 -5.94570313 8.41748535 -5.59375 7.48754883 C-5.27664063 6.6602124 -4.95953125 5.83287598 -4.6328125 4.98046875 C-4.35381104 4.25230957 -4.07480957 3.52415039 -3.78735352 2.77392578 C-2.77210006 0.41336695 -2.62870688 0.12423 0 0 Z " fill="#FBFBFB" transform="translate(426.06640625,274.90234375)"/>
<path d="M0 0 C3.3 0 6.6 0 10 0 C10.33 6.27 10.66 12.54 11 19 C12.65 18.01 14.3 17.02 16 16 C19.82248206 15.59044835 22.26470398 15.68954168 25.8125 17.1875 C28.43209908 19.35802496 28.97749256 20.77764736 30 24 C30.22705078 26.86254883 30.22705078 26.86254883 30.1953125 29.95703125 C30.18886719 31.06884766 30.18242187 32.18066406 30.17578125 33.32617188 C30.15902344 34.47666016 30.14226562 35.62714844 30.125 36.8125 C30.11597656 37.98232422 30.10695313 39.15214844 30.09765625 40.35742188 C30.07413831 43.23836916 30.03826879 46.11921089 30 49 C26.37 49 22.74 49 19 49 C18.505 37.615 18.505 37.615 18 26 C13.13511237 26.3817758 13.13511237 26.3817758 11.71337891 28.79199219 C10.98052472 31.06027872 10.68785354 32.95008402 10.5859375 35.328125 C10.52792969 36.52695312 10.52792969 36.52695312 10.46875 37.75 C10.4378125 38.575 10.406875 39.4 10.375 40.25 C10.31699219 41.51070313 10.31699219 41.51070313 10.2578125 42.796875 C10.16384164 44.86423382 10.08084436 46.93208627 10 49 C6.7 49 3.4 49 0 49 C0 32.83 0 16.66 0 0 Z " fill="#FBFBFB" transform="translate(297,271)"/>
<path d="M0 0 C3.9323173 2.65202795 6.18648186 5.30944559 7.6875 9.8125 C7.6875 12.7825 7.6875 15.7525 7.6875 18.8125 C1.0875 18.8125 -5.5125 18.8125 -12.3125 18.8125 C-11.6525 20.4625 -10.9925 22.1125 -10.3125 23.8125 C-7.6725 23.8125 -5.0325 23.8125 -2.3125 23.8125 C-2.3125 23.1525 -2.3125 22.4925 -2.3125 21.8125 C0.6575 22.1425 3.6275 22.4725 6.6875 22.8125 C6.38929167 26.39099992 5.94504642 27.57476484 3.25 30.0625 C-2.03121656 33.66918448 -7.03703561 33.40390502 -13.3125 32.8125 C-17.79735937 30.65015709 -20.56858699 27.93980249 -23.3125 23.8125 C-23.84375 20.25390625 -23.84375 20.25390625 -23.8125 16.375 C-23.82796875 14.45880859 -23.82796875 14.45880859 -23.84375 12.50390625 C-23.23202361 8.25330746 -21.99713685 6.12597071 -19.3125 2.8125 C-13.06623722 -1.84157815 -7.37540461 -2.64401297 0 0 Z " fill="#F6F6F6" transform="translate(356.3125,288.1875)"/>
<path d="M0 0 C2.98300394 2.10992961 3.99945569 3.51323318 5.5625 6.8125 C5.87587114 9.61897432 6.07198504 12.25523167 6.125 15.0625 C6.187022 17.67201832 6.32762657 20.20808069 6.5625 22.8125 C7.2225 23.1425 7.8825 23.4725 8.5625 23.8125 C8.2325 26.4525 7.9025 29.0925 7.5625 31.8125 C0.17788462 32.18173077 0.17788462 32.18173077 -2.9375 30.3125 C-3.4325 29.8175 -3.9275 29.3225 -4.4375 28.8125 C-4.84355469 29.28816406 -5.24960938 29.76382812 -5.66796875 30.25390625 C-8.76047067 32.97776556 -12.43313985 33.05808256 -16.4375 32.8125 C-21.83509036 30.01731928 -21.83509036 30.01731928 -23.4375 26.8125 C-23.93230737 22.44170155 -23.99562383 20.53008779 -21.25 17 C-15.90122534 12.83984193 -12.01868053 12.58940913 -5.4375 12.8125 C-5.7675 11.1625 -6.0975 9.5125 -6.4375 7.8125 C-8.91016765 8.15694881 -8.91016765 8.15694881 -11.4375 8.8125 C-11.7675 9.4725 -12.0975 10.1325 -12.4375 10.8125 C-15.7375 10.4825 -19.0375 10.1525 -22.4375 9.8125 C-22.4375 8.1625 -22.4375 6.5125 -22.4375 4.8125 C-15.86348409 -1.61542667 -8.68227715 -2.99933211 0 0 Z " fill="#F8F8F8" transform="translate(255.4375,288.1875)"/>
<path d="M0 0 C3.51715673 2.31812603 5.91927944 4.73569861 7.5 8.6875 C7.85552548 11.70946661 7.75 14.76969199 7.75 17.8125 C1.15 17.8125 -5.45 17.8125 -12.25 17.8125 C-11.59 19.7925 -10.93 21.7725 -10.25 23.8125 C-7.61 23.8125 -4.97 23.8125 -2.25 23.8125 C-2.25 23.1525 -2.25 22.4925 -2.25 21.8125 C1.05 22.1425 4.35 22.4725 7.75 22.8125 C6.39717831 27.23991644 4.51701112 29.17559221 0.75 31.8125 C-3.18009131 33.77754566 -7.95635579 33.14651758 -12.25 32.8125 C-17.62842846 30.95449744 -20.71081756 27.89086487 -23.25 22.8125 C-24.27162727 10.83768851 -24.27162727 10.83768851 -21.75 5.75 C-15.92546484 -1.09382881 -8.52685526 -3.11558173 0 0 Z " fill="#FAFAFA" transform="translate(220.25,288.1875)"/>
<path d="M0 0 C3.3 0 6.6 0 10 0 C10 2.64 10 5.28 10 8 C12.97 8 15.94 8 19 8 C19 10.64 19 13.28 19 16 C16.03 16 13.06 16 10 16 C10.33 20.95 10.66 25.9 11 31 C11.66 31 12.32 31 13 31 C13.33 30.34 13.66 29.68 14 29 C19.75 29.75 19.75 29.75 22 32 C19.375 37.75 19.375 37.75 16 40 C11.07727335 40.64634274 6.50218937 41.07299241 2.375 38.125 C0.41125678 35.09012411 -0.12286245 33.44646827 -0.09765625 29.8671875 C-0.09282227 28.65869141 -0.09282227 28.65869141 -0.08789062 27.42578125 C-0.07951172 26.58402344 -0.07113281 25.74226563 -0.0625 24.875 C-0.05798828 24.02550781 -0.05347656 23.17601562 -0.04882812 22.30078125 C-0.03702874 20.20049091 -0.01909306 18.1002367 0 16 C-1.32 16 -2.64 16 -4 16 C-4 13.36 -4 10.72 -4 8 C-2.68 8 -1.36 8 0 8 C0 5.36 0 2.72 0 0 Z " fill="#FDFDFD" transform="translate(271,280)"/>
<path d="M0 0 C1.32 0.66 2.64 1.32 4 2 C2.64680663 5.01947899 1.13702023 7.11100877 -1.20169067 9.44219971 C-1.86074402 10.10400238 -2.51979736 10.76580505 -3.19882202 11.44766235 C-3.92098907 12.16263885 -4.64315613 12.87761536 -5.38720703 13.61425781 C-6.14827759 14.37562042 -6.90934814 15.13698303 -7.69348145 15.92141724 C-10.21021356 18.43675604 -12.73395584 20.94493661 -15.2578125 23.453125 C-17.00416872 25.19575111 -18.7500839 26.93881931 -20.49557495 28.68231201 C-25.09103696 33.27013748 -29.69247349 37.85192517 -34.29516602 42.43249512 C-38.99075464 47.10762586 -43.68068622 51.78842168 -48.37109375 56.46875 C-57.57519177 65.65139772 -66.78541868 74.8278727 -76 84 C-77.32 83.34 -78.64 82.68 -80 82 C-78.64680663 78.98052101 -77.13702023 76.88899123 -74.79830933 74.55780029 C-74.13925598 73.89599762 -73.48020264 73.23419495 -72.80117798 72.55233765 C-72.07901093 71.83736115 -71.35684387 71.12238464 -70.61279297 70.38574219 C-69.85172241 69.62437958 -69.09065186 68.86301697 -68.30651855 68.07858276 C-65.78978644 65.56324396 -63.26604416 63.05506339 -60.7421875 60.546875 C-58.99583128 58.80424889 -57.2499161 57.06118069 -55.50442505 55.31768799 C-50.90896304 50.72986252 -46.30752651 46.14807483 -41.70483398 41.56750488 C-37.00924536 36.89237414 -32.31931378 32.21157832 -27.62890625 27.53125 C-18.42480823 18.34860228 -9.21458132 9.1721273 0 0 Z " fill="#F7F7F7" transform="translate(365,128)"/>
<path d="M0 0 C1.875 1.5 1.875 1.5 3 3 C1.50163895 6.11198065 -0.19933758 9.0534615 -2 12 C-4.97 11.505 -4.97 11.505 -8 11 C-9.61635488 13.86973884 -10.2733418 16.04464203 -10.4140625 19.328125 C-10.47207031 20.52695312 -10.47207031 20.52695312 -10.53125 21.75 C-10.57765625 22.9875 -10.57765625 22.9875 -10.625 24.25 C-10.68300781 25.51070313 -10.68300781 25.51070313 -10.7421875 26.796875 C-10.83615836 28.86423382 -10.91915564 30.93208627 -11 33 C-14.63 33 -18.26 33 -22 33 C-22 22.44 -22 11.88 -22 1 C-18.7 1 -15.4 1 -12 1 C-11.67 1.99 -11.34 2.98 -11 4 C-10.29875 3.34 -9.5975 2.68 -8.875 2 C-5.52201252 -0.33251303 -3.99800164 -0.60839155 0 0 Z " fill="#F8F8F8" transform="translate(391,287)"/>
<path d="M0 0 C1.32 0.66 2.64 1.32 4 2 C2.3993244 5.97526224 -0.37143556 8.64020304 -3.36767578 11.59472656 C-3.91416779 12.14151062 -4.46065979 12.68829468 -5.02371216 13.25164795 C-6.82621093 15.05275649 -8.63568396 16.84668247 -10.4453125 18.640625 C-11.69842367 19.89000495 -12.95109319 21.13982801 -14.20333862 22.39007568 C-17.49675955 25.67586872 -20.79614291 28.9556107 -24.09680176 32.23413086 C-27.46528994 35.58214253 -30.8281076 38.93583907 -34.19140625 42.2890625 C-40.78873176 48.86495296 -47.39236983 55.43446516 -54 62 C-55.32 61.34 -56.64 60.68 -58 60 C-56.3993244 56.02473776 -53.62856444 53.35979696 -50.63232422 50.40527344 C-50.08583221 49.85848938 -49.53934021 49.31170532 -48.97628784 48.74835205 C-47.17378907 46.94724351 -45.36431604 45.15331753 -43.5546875 43.359375 C-42.30157633 42.10999505 -41.04890681 40.86017199 -39.79666138 39.60992432 C-36.50324045 36.32413128 -33.20385709 33.0443893 -29.90319824 29.76586914 C-26.53471006 26.41785747 -23.1718924 23.06416093 -19.80859375 19.7109375 C-13.21126824 13.13504704 -6.60763017 6.56553484 0 0 Z " fill="#F7F7F7" transform="translate(344,126)"/>
<path d="M0 0 C1.32 0.66 2.64 1.32 4 2 C4 5.6385171 2.91718095 6.43445263 0.44616699 8.92709351 C-0.07747437 9.43994904 -0.60111572 9.95280457 -1.140625 10.48120117 C-1.68682495 11.0278392 -2.2330249 11.57447723 -2.79577637 12.13768005 C-4.60683209 13.94664215 -6.42829015 15.74474146 -8.25 17.54296875 C-9.50618565 18.79356051 -10.76171153 20.04481532 -12.01660156 21.29670715 C-15.32431832 24.59295895 -18.64094474 27.88010375 -21.95947266 31.16546631 C-25.3429659 34.51829437 -28.71800279 37.87961063 -32.09375 41.24023438 C-38.72089264 47.83518373 -45.35747358 54.42054821 -52 61 C-54 59.625 -54 59.625 -56 58 C-56 57.34 -56 56.68 -56 56 C-54.63768005 54.65644836 -54.63768005 54.65644836 -52.68920898 53.0559082 C-47.16809126 48.35692195 -42.08907159 43.23370186 -36.97265625 38.10546875 C-35.93287978 37.06636734 -34.89295502 36.02741429 -33.85289001 34.98860168 C-31.69058415 32.82775932 -29.53007046 30.66514564 -27.37084961 28.5012207 C-24.60127373 25.7259052 -21.82717384 22.95516168 -19.05175114 20.18569469 C-16.91131591 18.04886511 -14.77325819 15.9096695 -12.63592339 13.76973915 C-11.61316779 12.74631651 -10.58966892 11.72363609 -9.56541634 10.70171165 C-8.14153708 9.28036354 -6.72119152 7.85547808 -5.30102539 6.43041992 C-4.49242569 5.62102463 -3.68382599 4.81162933 -2.85072327 3.97770691 C-0.94724454 2.13165971 -0.94724454 2.13165971 0 0 Z " fill="#F2F2F2" transform="translate(364,151)"/>
<path d="M0 0 C2 1.375 2 1.375 4 3 C4 3.66 4 4.32 4 5 C2.75976562 6.21899414 2.75976562 6.21899414 0.90625 7.72265625 C-5.94887319 13.55162674 -12.16332295 20.05841841 -18.5 26.4375 C-19.81226585 27.75479059 -21.12476395 29.07184986 -22.4375 30.38867188 C-25.62768506 33.5897861 -28.81470651 36.79401865 -32 40 C-33.32 39.34 -34.64 38.68 -36 38 C-34.6238464 34.90820864 -33.04841555 32.80361247 -30.65185547 30.42480469 C-29.97130096 29.74440125 -29.29074646 29.0639978 -28.58956909 28.36297607 C-27.85618317 27.63991272 -27.12279724 26.91684937 -26.3671875 26.171875 C-25.61535187 25.42286926 -24.86351624 24.67386353 -24.08889771 23.90216064 C-21.68892099 21.5133698 -19.28207991 19.13163103 -16.875 16.75 C-15.24563648 15.13066831 -13.61672466 13.51088198 -11.98828125 11.890625 C-7.99741194 7.92179495 -4.00088585 3.95873101 0 0 Z " fill="#F1F1F1" transform="translate(321,126)"/>
<path d="M0 0 C1.32 0.66 2.64 1.32 4 2 C2.64451035 5.01647998 1.11944709 7.14376688 -1.19287109 9.49926758 C-2.16430557 10.49468315 -2.16430557 10.49468315 -3.15536499 11.51020813 C-3.85432892 12.21453476 -4.55329285 12.91886139 -5.2734375 13.64453125 C-5.99359039 14.37371262 -6.71374329 15.10289398 -7.45571899 15.85417175 C-8.97782898 17.39077185 -10.50275146 18.92459036 -12.03027344 20.45581055 C-14.37160799 22.80909068 -16.69364614 25.18037388 -19.015625 27.55273438 C-20.49624414 29.04281194 -21.97797762 30.53178323 -23.4609375 32.01953125 C-24.15585297 32.73397903 -24.85076843 33.44842682 -25.56674194 34.18452454 C-26.22066925 34.83237411 -26.87459656 35.48022369 -27.54833984 36.14770508 C-28.11966644 36.72410233 -28.69099304 37.30049957 -29.27963257 37.8943634 C-31 39 -31 39 -33.21572876 38.67826843 C-34.09894302 38.34252556 -34.09894302 38.34252556 -35 38 C-35 35 -35 35 -33.67126465 33.3105011 C-33.04949341 32.69539169 -32.42772217 32.08028229 -31.78710938 31.4465332 C-30.7360199 30.39578362 -30.7360199 30.39578362 -29.66369629 29.32380676 C-28.51532288 28.19865913 -28.51532288 28.19865913 -27.34375 27.05078125 C-26.17845764 25.89185616 -26.17845764 25.89185616 -24.98962402 24.70951843 C-22.50001473 22.23673885 -20.00019042 19.7745763 -17.5 17.3125 C-15.81312034 15.64066155 -14.12691343 13.96814401 -12.44140625 12.29492188 C-8.30205286 8.18869475 -4.15425893 4.09114359 0 0 Z " fill="#F4F4F4" transform="translate(365,173)"/>
<path d="M0 0 C2.5 0.5 2.5 0.5 4.1328125 2.21875 C5.72503133 4.87548084 5.90312362 6.42515056 5.875 9.5 C5.88273437 10.345625 5.89046875 11.19125 5.8984375 12.0625 C5.42131007 14.9813972 4.52732529 16.37082344 2.5 18.5 C0 18.9375 0 18.9375 -2.5 18.5 C-4.1328125 17.3125 -4.1328125 17.3125 -5.5 15.5 C-5.8984375 12.94140625 -5.8984375 12.94140625 -5.875 10.0625 C-5.88273437 9.11503906 -5.89046875 8.16757812 -5.8984375 7.19140625 C-5.30955906 3.21359009 -4.05986066 0.81197213 0 0 Z " fill="#585858" transform="translate(470.5,294.5)"/>
<path d="M0 0 C2.5 0.5 2.5 0.5 4.1328125 2.21875 C5.72503133 4.87548084 5.90312362 6.42515056 5.875 9.5 C5.88273438 10.345625 5.89046875 11.19125 5.8984375 12.0625 C5.42122956 14.98188974 4.52245016 16.3662667 2.5 18.5 C0 19.0625 0 19.0625 -2.5 18.5 C-5.26149872 15.54805309 -5.72665432 12.84608621 -5.875 8.9375 C-5.76628403 6.10143113 -5.52153931 4.54647957 -4.3125 1.9375 C-2.5 0.5 -2.5 0.5 0 0 Z " fill="#575757" transform="translate(508.5,294.5)"/>
<path d="M0 0 C2.34914492 2.34914492 2.73140357 3.95679446 3.625 7.125 C3.88539063 8.03507812 4.14578125 8.94515625 4.4140625 9.8828125 C4.70410156 10.93082031 4.70410156 10.93082031 5 12 C2.03 12 -0.94 12 -4 12 C-2.66666667 8 -1.33333333 4 0 0 Z " fill="#5E5E5E" transform="translate(428,291)"/>
<path d="M0 0 C2.5625 0.1875 2.5625 0.1875 4.5625 2.1875 C4.5625 3.1775 4.5625 4.1675 4.5625 5.1875 C1.5925 5.1875 -1.3775 5.1875 -4.4375 5.1875 C-3.20220588 0.24632353 -3.20220588 0.24632353 0 0 Z " fill="#4C4C4C" transform="translate(212.4375,294.8125)"/>
<path d="M0 0 C1.4540625 0.0309375 1.4540625 0.0309375 2.9375 0.0625 C2.0625 4.9375 2.0625 4.9375 0.9375 6.0625 C-0.72867115 6.10313832 -2.39638095 6.105221 -4.0625 6.0625 C-4.105221 4.39638095 -4.10313832 2.72867115 -4.0625 1.0625 C-3.0625 0.0625 -3.0625 0.0625 0 0 Z " fill="#4E4E4E" transform="translate(247.0625,306.9375)"/>
<path d="M0 0 C1.2065625 0.0309375 1.2065625 0.0309375 2.4375 0.0625 C2.7675 1.7125 3.0975 3.3625 3.4375 5.0625 C0.7975 5.0625 -1.8425 5.0625 -4.5625 5.0625 C-3.43829114 0.08386076 -3.43829114 0.08386076 0 0 Z " fill="#4D4D4D" transform="translate(348.5625,294.9375)"/>
</svg>
